<svg version="1" xmlns="http://www.w3.org/2000/svg" width="800" height="800" viewBox="0 0 600.000000 600.000000"><path d="M320.7 90.3c-.3.9-8.7 1.2-37.6 1.2H246l-1 3c-.5 1.6-3.4 12.9-6.4 25-3 12.1-7.1 28.5-9.1 36.5l-4 16c-.5 2-42.2 167.6-44.5 176.5l-1.8 7 .4-7.5c.3-4.1.7-8.6.9-10 .2-1.4.6-6.8 1-12s.8-10.6 1-12c.2-1.4.7-6.1 1-10.5.3-4.4.7-9.6.9-11.5.3-1.9.7-7.3 1.1-12 .3-4.7.8-10.1 1-12 .2-1.9.7-7.1 1-11.5.4-4.4.8-9.6 1-11.5.2-1.9.6-7.1 1-11.5.3-4.4.8-9.1 1-10.5.2-1.4.6-6.8 1-12 .3-5.2.8-10.6 1-12 .2-1.4.6-6.1 1-10.5.3-4.4.8-10.3 1-13 .3-2.8.7-7.7 1-11 .3-3.3.7-8.3 1-11 .3-2.8.7-7.9 1-11.5.6-7.7 1.4-16.7 2-23 .2-2.5.6-7.7.9-11.5.4-3.9.9-8.9 1.1-11.3.5-3.8.4-4.2-1.7-4.3-8.4-.4-90.2.2-90.7.7-.3.3-.6 2.7-.7 5.2-.2 7.2-1.4 36.7-1.9 46.2-.2 4.7-.7 14.6-1 22-.3 7.4-.8 18.4-1 24.5-.3 6-.7 17.5-1 25.5-.3 8-.7 17.6-1 21.5-.3 3.8-.7 14-1 22.5-.3 8.5-.8 19.8-1 25-.2 5.2-.7 16.5-1 25-.4 8.5-.8 18.4-1 22-.3 6.5-1.3 29-2 47-.4 10.2-1.4 32.4-3 69-.3 6.3-.7 17.3-1 24.5-.3 7.1-.8 18.2-1.1 24.5l-.5 11.5h114.6l2.7-11c5.1-21.2 6.8-28.1 10.8-45 2.2-9.4 4.7-19.7 5.5-23 .9-3.3 1.7-6.9 1.9-8 .8-3.7 6.6-28 7.6-31.5.6-1.9 2.2-8.5 3.6-14.5 3.2-13.7 2.4-10.2 8.3-35.3 2.8-11.7 6-24.7 7-29 1.1-4.2 2.2-8.8 2.4-10.2.3-1.4 1-4.5 1.7-7s1.4-5.6 1.7-7c.2-1.4 1.1-4.8 1.9-7.5.8-2.8 1.4-5.2 1.4-5.5-.1-1.7 3.3-15 3.9-15 .3 0 .7 9.6.7 21.3.1 11.6.5 47.5.9 79.7s.8 70.4 1 85c.2 14.6.4 34 .5 43.2.2 12.2-.1 17.2-1 18.3-.7.8-1 2.2-.6 3 .5 1.3 8.8 1.5 69 1.5 62.2 0 68.6-.1 70.1-1.6.9-1 4.2-4.9 7.3-8.8 3.1-3.9 5.9-7.3 6.2-7.6 1.3-1.1 18.1-24.1 22.7-31 2.8-4.1 8-12.5 11.7-18.5 3.7-6.1 7.1-11.7 7.6-12.5 4.1-6.5 15.7-31 19.8-42 14-36.8 17-72.9 8.1-98.3-8.3-24-23-40.7-46.1-52.7-9-4.6-22.2-9.4-29.1-10.5-1.7-.3-4.3-.8-5.7-1-1.4-.3-4.4-.6-6.7-.7-2.4-.1-4.3-.2-4.3-.3 0-.1 1.8-9.1 4-20.1 2.2-10.9 4.2-20.8 4.4-21.9.8-4.3 3.6-18.1 4.1-20.5.5-2.3 2.5-13.2 2.5-13.5 0-.1 19.5-.1 43.3 0 23.7 0 43.9-.3 44.8-.7 1-.4 1.9-2.5 2.3-5.1.4-2.4.9-5.7 1.2-7.3 1.7-10.2 2.4-14.4 2.9-18.4.3-2.5.8-5.9 1.2-7.5.3-1.7.7-3.7.8-4.5.1-.8.6-4 1-7 1-6.2.8-8.2-.8-9.2-.7-.4-43.3-.8-94.8-.8-74.2 0-93.8.3-94.2 1.3zm12.7 171.8c6.8 1 7.4 1.3 7 3.3-.3 2.1-2.8 18.4-3.9 26.1-.3 2.2-.8 5.1-1.1 6.5-.2 1.4-.7 4.3-.9 6.5-.5 3.6-1.8 12.4-3 19.5-.6 3.8-2.3 15-3 19.5-.3 2.3-.7 5-.9 6.1-.2 1.2-.7 4.5-1.1 7.5-.4 3-.8 5.6-1 5.9-.2.3-.6 3.4-1 7s-1 6.8-1.3 7.2c-.4.4-.7-25.6-.7-57.8 0-54.5.1-58.4 1.7-58.4.9 0 5.1.5 9.2 1.1z"/></svg>